<svg xmlns="http://www.w3.org/2000/svg" width="512" height="512" viewBox="0 0 512 512">
  <rect width="512" height="512" rx="112" fill="#1D2560"/>
  <path d="M 294.71 251.46 L 364.25 146.36 L 361.64 143.79 L 356.18 138.89 L 350.50 134.25 L 344.60 129.90 L 338.50 125.82 L 332.21 122.05 L 325.75 118.57 L 319.13 115.41 L 312.37 112.56 L 305.48 110.04 L 298.48 107.85 L 291.38 106.00 L 284.21 104.49 L 276.96 103.32 L 269.68 102.49 L 262.36 102.02 L 255.02 101.89 L 247.69 102.11 L 240.38 102.68 L 233.10 103.60 L 225.87 104.86 L 224.34 105.20 L 283.57 223.93 L 283.72 224.26 L 294.71 251.46 Z " fill="#FFFFFF"/>
  <path d="M 271.43 220.21 L 215.17 107.44 L 211.64 108.41 L 204.67 110.68 L 197.81 113.29 L 191.09 116.22 L 184.51 119.47 L 178.10 123.02 L 171.86 126.88 L 165.81 131.03 L 159.96 135.46 L 154.34 140.17 L 148.94 145.14 L 143.79 150.36 L 138.89 155.82 L 134.25 161.50 L 129.90 167.40 L 125.82 173.50 L 122.05 179.79 L 118.57 186.25 L 115.41 192.87 L 112.56 199.63 L 110.04 206.52 L 109.58 208.01 L 242.01 216.09 L 242.37 216.12 L 271.43 220.21 Z " fill="#FFFFFF"/>
  <path d="M 232.72 224.74 L 106.93 217.08 L 106.00 220.62 L 104.49 227.79 L 103.32 235.04 L 102.49 242.32 L 102.02 249.64 L 101.89 256.98 L 102.11 264.31 L 102.68 271.62 L 103.60 278.90 L 104.86 286.13 L 106.46 293.28 L 108.41 300.36 L 110.68 307.33 L 113.29 314.19 L 116.22 320.91 L 119.47 327.49 L 123.02 333.90 L 126.88 340.14 L 131.03 346.19 L 135.46 352.04 L 140.17 357.66 L 141.23 358.81 L 214.44 248.16 L 214.65 247.86 L 232.72 224.74 Z " fill="#FFFFFF"/>
  <path d="M 217.29 260.54 L 147.75 365.64 L 150.36 368.21 L 155.82 373.11 L 161.50 377.75 L 167.40 382.10 L 173.50 386.18 L 179.79 389.95 L 186.25 393.43 L 192.87 396.59 L 199.63 399.44 L 206.52 401.96 L 213.52 404.15 L 220.62 406.00 L 227.79 407.51 L 235.04 408.68 L 242.32 409.51 L 249.64 409.98 L 256.98 410.11 L 264.31 409.89 L 271.62 409.32 L 278.90 408.40 L 286.13 407.14 L 287.66 406.80 L 228.43 288.07 L 228.28 287.74 L 217.29 260.54 Z " fill="#FFFFFF"/>
  <path d="M 240.57 291.79 L 296.83 404.56 L 300.36 403.59 L 307.33 401.32 L 314.19 398.71 L 320.91 395.78 L 327.49 392.53 L 333.90 388.98 L 340.14 385.12 L 346.19 380.97 L 352.04 376.54 L 357.66 371.83 L 363.06 366.86 L 368.21 361.64 L 373.11 356.18 L 377.75 350.50 L 382.10 344.60 L 386.18 338.50 L 389.95 332.21 L 393.43 325.75 L 396.59 319.13 L 399.44 312.37 L 401.96 305.48 L 402.42 303.99 L 269.99 295.91 L 269.63 295.88 L 240.57 291.79 Z " fill="#FFFFFF"/>
  <path d="M 279.28 287.26 L 405.07 294.92 L 406.00 291.38 L 407.51 284.21 L 408.68 276.96 L 409.51 269.68 L 409.98 262.36 L 410.11 255.02 L 409.89 247.69 L 409.32 240.38 L 408.40 233.10 L 407.14 225.87 L 405.54 218.72 L 403.59 211.64 L 401.32 204.67 L 398.71 197.81 L 395.78 191.09 L 392.53 184.51 L 388.98 178.10 L 385.12 171.86 L 380.97 165.81 L 376.54 159.96 L 371.83 154.34 L 370.77 153.19 L 297.56 263.84 L 297.35 264.14 L 279.28 287.26 Z " fill="#FFFFFF"/>
  <circle cx="256.00" cy="256.00" r="26.98" fill="#45D7B8"/>
</svg>