<svg xmlns="http://www.w3.org/2000/svg" width="909" height="208" viewBox="0 0 909 208">
  <title>Focusoft</title>
  <g transform="translate(-17.0,-5.2) scale(0.91)">
    <rect x="72" y="52" width="30" height="136" rx="15" fill="#FFFFFF"/>
    <rect x="72" y="52" width="112" height="30" rx="15" fill="#FFFFFF"/>
    <rect x="72" y="112" width="76" height="30" rx="15" fill="#FFFFFF"/>
    <circle cx="177" cy="127" r="17" fill="#45D7B8"/>
  </g>
  <g transform="translate(212.00,157.10)">
  <g transform="translate(0.00,0) scale(0.15000,-0.15000)"><path d="M299 434H515V240H300V0H66V708H544V509H299Z" fill="#FFFFFF"/></g>
  <g transform="translate(79.95,0) scale(0.15000,-0.15000)"><path d="M632 265Q632 197 607.5 144.0Q583 91 541.5 54.5Q500 18 445.5 -1.0Q391 -20 331 -20Q272 -20 217.5 -1.0Q163 18 122.0 54.5Q81 91 56.5 144.0Q32 197 32 265Q32 332 56.5 384.5Q81 437 122.0 473.0Q163 509 217.5 527.5Q272 546 331 546Q391 546 445.5 527.5Q500 509 541.5 473.0Q583 437 607.5 384.5Q632 332 632 265ZM331 352Q293 352 269.5 326.0Q246 300 246 265Q246 228 270.0 202.0Q294 176 332 176Q370 176 394.0 202.0Q418 228 418 265Q418 300 393.5 326.0Q369 352 331 352Z" fill="#FFFFFF"/></g>
  <g transform="translate(179.55,0) scale(0.15000,-0.15000)"><path d="M339 -20Q272 -20 216.0 0.0Q160 20 119.0 57.0Q78 94 55.0 146.0Q32 198 32 263Q32 327 55.5 379.5Q79 432 121.0 469.0Q163 506 219.5 526.0Q276 546 342 546Q369 546 396.5 541.5Q424 537 449.5 529.0Q475 521 496.5 511.0Q518 501 533 489L418 323Q406 337 386.5 344.5Q367 352 349 352Q332 352 316.0 346.5Q300 341 287.5 329.5Q275 318 267.0 301.5Q259 285 259 263Q259 241 267.0 224.5Q275 208 287.5 197.5Q300 187 316.0 181.5Q332 176 349 176Q369 176 388.0 183.5Q407 191 419 204L535 42Q502 16 449.5 -2.0Q397 -20 339 -20Z" fill="#FFFFFF"/></g>
  <g transform="translate(258.45,0) scale(0.15000,-0.15000)"><path d="M610 0H385V58H383Q363 29 323.5 7.5Q284 -14 233 -14Q177 -14 141.0 5.5Q105 25 83.5 56.5Q62 88 53.5 127.5Q45 167 45 206V526H277V248Q277 208 289.5 192.0Q302 176 327 176Q350 176 364.5 194.5Q379 213 379 248V526H610Z" fill="#FFFFFF"/></g>
  <g transform="translate(357.90,0) scale(0.15000,-0.15000)"><path d="M484 167Q484 114 461.5 78.0Q439 42 404.5 20.5Q370 -1 329.0 -10.5Q288 -20 251 -20Q183 -20 117.5 -0.5Q52 19 4 55L117 186Q141 164 173.5 150.5Q206 137 236 137Q248 137 258.5 141.5Q269 146 269 158Q269 171 250.5 178.5Q232 186 186 197Q161 203 135.0 214.5Q109 226 87.5 245.0Q66 264 52.0 291.5Q38 319 38 357Q38 408 60.5 444.0Q83 480 117.5 502.5Q152 525 192.5 535.5Q233 546 269 546Q330 546 390.0 528.0Q450 510 498 478L390 349Q365 365 339.0 374.0Q313 383 288 383Q271 383 260.0 378.5Q249 374 249 361Q249 351 261.5 345.5Q274 340 319 331Q350 325 379.5 312.5Q409 300 432.5 280.5Q456 261 470.0 233.0Q484 205 484 167Z" fill="#0EA2DF"/></g>
  <g transform="translate(434.85,0) scale(0.15000,-0.15000)"><path d="M632 265Q632 197 607.5 144.0Q583 91 541.5 54.5Q500 18 445.5 -1.0Q391 -20 331 -20Q272 -20 217.5 -1.0Q163 18 122.0 54.5Q81 91 56.5 144.0Q32 197 32 265Q32 332 56.5 384.5Q81 437 122.0 473.0Q163 509 217.5 527.5Q272 546 331 546Q391 546 445.5 527.5Q500 509 541.5 473.0Q583 437 607.5 384.5Q632 332 632 265ZM331 352Q293 352 269.5 326.0Q246 300 246 265Q246 228 270.0 202.0Q294 176 332 176Q370 176 394.0 202.0Q418 228 418 265Q418 300 393.5 326.0Q369 352 331 352Z" fill="#0EA2DF"/></g>
  <g transform="translate(534.45,0) scale(0.15000,-0.15000)"><path d="M426 598Q417 602 405.0 604.5Q393 607 381 607Q347 607 333.5 586.0Q320 565 320 533V526H431V361H320V0H90V361H0V526H90V538Q90 587 101.5 632.0Q113 677 141.0 711.5Q169 746 216.5 766.0Q264 786 336 786Q359 786 389.5 782.5Q420 779 441 771L426 598Z" fill="#0EA2DF"/></g>
  <g transform="translate(593.55,0) scale(0.15000,-0.15000)"><path d="M282 -14Q176 -14 125.0 31.5Q74 77 74 173V361H0V526H73V644H297V526H411V361H297V221Q297 183 313.5 169.5Q330 156 359 156Q370 156 382.0 158.0Q394 160 401 162V4Q383 -4 350.5 -9.0Q318 -14 282 -14Z" fill="#0EA2DF"/></g>
  </g>
</svg>
