<svg xmlns="http://www.w3.org/2000/svg" width="240" height="240" viewBox="0 0 240 240">
  <title>Focusoft</title>
  <path d="M 144.39 117.14 L 188.20 50.92 L 186.56 49.30 L 183.12 46.22 L 179.54 43.30 L 175.82 40.55 L 171.98 37.98 L 168.01 35.60 L 163.94 33.41 L 159.78 31.42 L 155.52 29.63 L 151.18 28.04 L 146.76 26.66 L 142.29 25.49 L 137.77 24.54 L 133.21 23.80 L 128.62 23.28 L 124.00 22.98 L 119.38 22.90 L 114.76 23.04 L 110.16 23.40 L 105.57 23.98 L 101.02 24.77 L 100.06 24.99 L 137.37 99.79 L 137.46 100.00 L 144.39 117.14 Z " fill="#1D2560"/>
  <path d="M 129.72 97.45 L 94.28 26.40 L 92.05 27.01 L 87.66 28.44 L 83.34 30.09 L 79.10 31.93 L 74.96 33.98 L 70.92 36.22 L 66.99 38.65 L 63.18 41.26 L 59.49 44.06 L 55.95 47.02 L 52.55 50.15 L 49.30 53.44 L 46.22 56.88 L 43.30 60.46 L 40.55 64.18 L 37.98 68.02 L 35.60 71.99 L 33.41 76.06 L 31.42 80.22 L 29.63 84.48 L 28.04 88.82 L 27.75 89.77 L 111.19 94.85 L 111.41 94.88 L 129.72 97.45 Z " fill="#1D2560"/>
  <path d="M 105.33 100.31 L 26.08 95.48 L 25.49 97.71 L 24.54 102.23 L 23.80 106.79 L 23.28 111.38 L 22.98 116.00 L 22.90 120.62 L 23.04 125.24 L 23.40 129.84 L 23.98 134.43 L 24.77 138.98 L 25.79 143.49 L 27.01 147.95 L 28.44 152.34 L 30.09 156.66 L 31.93 160.90 L 33.98 165.04 L 36.22 169.08 L 38.65 173.01 L 41.26 176.82 L 44.06 180.51 L 47.02 184.05 L 47.69 184.78 L 93.81 115.06 L 93.95 114.87 L 105.33 100.31 Z " fill="#1D2560"/>
  <path d="M 95.61 122.86 L 51.80 189.08 L 53.44 190.70 L 56.88 193.78 L 60.46 196.70 L 64.18 199.45 L 68.02 202.02 L 71.99 204.40 L 76.06 206.59 L 80.22 208.58 L 84.48 210.37 L 88.82 211.96 L 93.24 213.34 L 97.71 214.51 L 102.23 215.46 L 106.79 216.20 L 111.38 216.72 L 116.00 217.02 L 120.62 217.10 L 125.24 216.96 L 129.84 216.60 L 134.43 216.02 L 138.98 215.23 L 139.94 215.01 L 102.63 140.21 L 102.54 140.00 L 95.61 122.86 Z " fill="#1D2560"/>
  <path d="M 110.28 142.55 L 145.72 213.60 L 147.95 212.99 L 152.34 211.56 L 156.66 209.91 L 160.90 208.07 L 165.04 206.02 L 169.08 203.78 L 173.01 201.35 L 176.82 198.74 L 180.51 195.94 L 184.05 192.98 L 187.45 189.85 L 190.70 186.56 L 193.78 183.12 L 196.70 179.54 L 199.45 175.82 L 202.02 171.98 L 204.40 168.01 L 206.59 163.94 L 208.58 159.78 L 210.37 155.52 L 211.96 151.18 L 212.25 150.23 L 128.81 145.15 L 128.59 145.12 L 110.28 142.55 Z " fill="#1D2560"/>
  <path d="M 134.67 139.69 L 213.92 144.52 L 214.51 142.29 L 215.46 137.77 L 216.20 133.21 L 216.72 128.62 L 217.02 124.00 L 217.10 119.38 L 216.96 114.76 L 216.60 110.16 L 216.02 105.57 L 215.23 101.02 L 214.21 96.51 L 212.99 92.05 L 211.56 87.66 L 209.91 83.34 L 208.07 79.10 L 206.02 74.96 L 203.78 70.92 L 201.35 66.99 L 198.74 63.18 L 195.94 59.49 L 192.98 55.95 L 192.31 55.22 L 146.19 124.94 L 146.05 125.13 L 134.67 139.69 Z " fill="#1D2560"/>
  <circle cx="120.00" cy="120.00" r="17.00" fill="#45D7B8"/>
</svg>